PathFileType	4	(X/Y/Z)	D:\Share\Shared_Data\Ergonomics\Sit To Stand Pertubation\S0\Free STS.trc
DataRate	CameraRate	NumFrames	NumMarkers	Units	OrigDataRate	OrigDataStartFrame	OrigNumFrames	
100	100	17	18	m	100	2196	231
Frame#	Time	R_Toe			R_ASIS			R_Pelvis			V_Sacral			L_Pelvis			L_ASIS			Clavical			R_Acromium			L_Acromium			Sternum			Torso			R_Thigh_Med			R_Thigh_Lat			R_Thigh			R_Shank_Med			R_Shank_Lat			R_Shank			R_Heel			
		X1	Y1	Z1	X2	Y2	Z2	X3	Y3	Z3	X4	Y4	Z4	X5	Y5	Z5	X6	Y6	Z6	X7	Y7	Z7	X8	Y8	Z8	X9	Y9	Z9	X10	Y10	Z10	X11	Y11	Z11	X12	Y12	Z12	X13	Y13	Z13	X14	Y14	Z14	X15	Y15	Z15	X16	Y16	Z16	X17	Y17	Z17	X18	Y18	Z18	

2196	8.38	0.37833646	0.047635201	0.1450417	-0.04389975	0.74174597	0.15918919	-0.17001743	0.72328754	0.20635413	-0.28839606	0.69077954	-0.021156263	-0.15128242	0.71456152	-0.20406152	-0.030588507	0.73861108	-0.158131	-0.039161961	1.1298247	-0.0050806456	-0.12204158	1.1845469	0.14027692	-0.13723169	1.1869856	-0.15370352	-0.0036039817	1.0388064	-0.023613552	-0.034918678	1.0833507	-0.12901385	0.30761267	0.4891813	0.080365799	0.28753372	0.50887555	0.21318126	0.21477895	0.64162817	0.12797859	0.25485614	0.10437788	0.10904911	0.19697389	0.091816818	0.19666507	0.25160226	0.31110425	0.22152142	0.15593568	0.04943811	0.14965828
2197	8.39	0.37828265	0.047692753	0.14495595	-0.04400816	0.74172119	0.15919925	-0.17011916	0.72340204	0.20637129	-0.28849057	0.69076178	-0.021138248	-0.15140468	0.71464136	-0.20405174	-0.030757347	0.73854944	-0.15809178	-0.038234558	1.1296462	-0.0051810918	-0.12099777	1.1845608	0.14016968	-0.13621355	1.1869574	-0.15380959	-0.0029099727	1.0385308	-0.023698544	-0.034090439	1.0831484	-0.1291132	0.30739911	0.48921606	0.080184196	0.28739743	0.50891751	0.21301028	0.21464128	0.64165399	0.12787042	0.25479933	0.10438731	0.10902231	0.19693697	0.09183007	0.1966633	0.25150743	0.31114853	0.22142982	0.1558985	0.049414127	0.14967351
2198	8.4	0.37822681	0.047755749	0.14486179	-0.044105038	0.74169409	0.1592094	-0.17021524	0.72352032	0.2063891	-0.28858304	0.69074945	-0.021120056	-0.15152771	0.71472302	-0.20404849	-0.030890711	0.73849677	-0.15805684	-0.03721011	1.1294357	-0.0052895007	-0.11984427	1.1845679	0.14005376	-0.13508554	1.1869192	-0.15392482	-0.002149298	1.0382126	-0.023789949	-0.033179661	1.0829084	-0.12921919	0.30717783	0.48924771	0.079990616	0.28725977	0.50895792	0.21283089	0.21450511	0.64168079	0.12775265	0.2547388	0.10439496	0.10899052	0.19689899	0.091843987	0.19665694	0.25140938	0.31119165	0.22132967	0.15586093	0.049387474	0.14968666
2199	8.41	0.37816916	0.047824615	0.14476012	-0.044186707	0.74166559	0.15921948	-0.17030328	0.72364142	0.20640559	-0.28867316	0.69074414	-0.021101671	-0.15164844	0.71480597	-0.20405096	-0.030988441	0.73845245	-0.15802782	-0.036084782	1.1291907	-0.0054054818	-0.11857516	1.1845675	0.13992941	-0.13383981	1.1868711	-0.15404903	-0.0013173035	1.0378496	-0.023886848	-0.032181736	1.0826273	-0.12933163	0.30695026	0.4892753	0.079787796	0.28712228	0.50899619	0.21264453	0.21437204	0.6417077	0.12762642	0.25467384	0.10440064	0.10895394	0.19685938	0.091857574	0.19664526	0.25130939	0.31123254	0.22122139	0.15582259	0.049357613	0.14969702
2200	8.42	0.37810971	0.047898884	0.14465221	-0.044250317	0.74163678	0.15922929	-0.17038109	0.72376459	0.20641878	-0.28875995	0.69074792	-0.021083223	-0.15176328	0.71488965	-0.20405714	-0.031050936	0.7384151	-0.1580062	-0.034855549	1.1289099	-0.0055289087	-0.11718516	1.1845587	0.13979669	-0.13246967	1.1868124	-0.15418188	-0.00041003469	1.0374391	-0.023988491	-0.031093002	1.0823029	-0.1294496	0.30671881	0.48929877	0.079578659	0.2869863	0.50903214	0.21245244	0.21424326	0.64173438	0.1274932	0.25460437	0.10440448	0.10891295	0.19681761	0.091869995	0.19662772	0.25120819	0.3112709	0.22110558	0.15578319	0.049324593	0.1497038
2201	8.43	0.37804874	0.04797715	0.14453946	-0.044293804	0.7416076	0.15923836	-0.17044568	0.7238902	0.20642801	-0.28884125	0.69076294	-0.021064997	-0.15186882	0.7149743	-0.2040652	-0.031078016	0.73838397	-0.157993	-0.033519531	1.128593	-0.0056595716	-0.1156702	1.1845414	0.13965555	-0.13096957	1.1867439	-0.15432312	0.00057563543	1.0369801	-0.024094156	-0.029910591	1.0819338	-0.12957123	0.30648718	0.48931848	0.07936602	0.28685275	0.50906598	0.21225571	0.21411987	0.64176025	0.12735459	0.25453099	0.10440682	0.10886816	0.19677354	0.091880974	0.19660463	0.25110611	0.31130719	0.22098291	0.15574261	0.049289032	0.14970677
2202	8.44	0.3779866	0.048057236	0.14442361	-0.044315624	0.74157776	0.15924617	-0.1704933	0.72401886	0.20643433	-0.28891434	0.69079169	-0.021047276	-0.15196236	0.71506055	-0.20407446	-0.031069305	0.73835809	-0.15798843	-0.032074036	1.1282406	-0.0057970328	-0.11402771	1.1845149	0.13950578	-0.12933525	1.1866655	-0.15447235	0.0016423743	1.036473	-0.024202959	-0.028632208	1.0815206	-0.12969441	0.30625903	0.48933533	0.079152542	0.28672202	0.5090986	0.21205559	0.2140029	0.64178528	0.12721224	0.25445459	0.10440816	0.10882048	0.19672754	0.091891022	0.19657727	0.25100336	0.31134259	0.22085406	0.15570122	0.049252064	0.14970615
2203	8.45	0.37792404	0.048136444	0.14430672	-0.04431432	0.74154663	0.15925208	-0.17051994	0.72415173	0.20644005	-0.28897559	0.69083636	-0.021030218	-0.1520419	0.71514966	-0.20408488	-0.031025797	0.738336	-0.15799197	-0.03051638	1.1278546	-0.0059406109	-0.11225613	1.1844791	0.13934715	-0.12756374	1.1865779	-0.15462907	0.0027932553	1.0359199	-0.024313986	-0.027255516	1.081064	-0.12981731	0.30603726	0.48935028	0.078940781	0.28659402	0.50913144	0.21185411	0.21389325	0.64180981	0.12706783	0.25437611	0.10440909	0.10877132	0.19668059	0.091901192	0.19654771	0.25090062	0.31137845	0.22071997	0.15565967	0.049215336	0.14970277
2204	8.46	0.37786224	0.048211834	0.14419131	-0.044288239	0.74151349	0.15925531	-0.17052249	0.72428961	0.20644727	-0.28902136	0.69089917	-0.021013947	-0.15210617	0.71524347	-0.20409677	-0.030951982	0.73831543	-0.15800243	-0.028843967	1.1274365	-0.0060893455	-0.11035419	1.1844344	0.13917937	-0.12565311	1.1864819	-0.15479247	0.0040323143	1.0353236	-0.02442655	-0.025777679	1.0805653	-0.12993861	0.30582269	0.48936493	0.078733261	0.28646869	0.50916608	0.21165404	0.21379144	0.64183435	0.1269231	0.25429688	0.10441027	0.10872247	0.19663397	0.091912704	0.19651848	0.2507989	0.31141568	0.22058226	0.15561891	0.049180824	0.14969795
2205	8.47	0.3778027	0.04828072	0.14408022	-0.044235695	0.74147705	0.1592551	-0.17049936	0.72443341	0.20645654	-0.28904782	0.69098212	-0.02099872	-0.15215417	0.71534399	-0.20411	-0.030857433	0.73829163	-0.15801805	-0.027054834	1.126988	-0.0062420464	-0.10832048	1.1843813	0.13900285	-0.12360207	1.1863781	-0.15496143	0.0053643713	1.0346886	-0.024540283	-0.024195627	1.0800266	-0.13005785	0.30561414	0.48938074	0.078532387	0.28634561	0.5092038	0.21145866	0.2136976	0.64185931	0.12677972	0.25421852	0.10441245	0.1086758	0.196589	0.091926353	0.19649176	0.25069934	0.31145474	0.22044344	0.15557985	0.049150314	0.14969301
2206	8.48	0.37774722	0.048341328	0.14397618	-0.044155678	0.74143567	0.15925056	-0.17045052	0.72458411	0.20646611	-0.2890517	0.69108679	-0.020985022	-0.15218491	0.7154538	-0.20412427	-0.030756451	0.73825793	-0.15803696	-0.025147577	1.1265104	-0.0063974137	-0.10615309	1.1843207	0.13881873	-0.1214093	1.1862665	-0.15513434	0.0067945304	1.0340192	-0.024655006	-0.022506216	1.07945	-0.13017509	0.3054097	0.48939938	0.078340248	0.28622464	0.50924557	0.21127145	0.21361136	0.64188513	0.12663935	0.25414297	0.10441627	0.10863288	0.19654662	0.091942215	0.1964689	0.2506026	0.31149576	0.22030701	0.15554343	0.049124916	0.14968886
2207	8.49	0.37769717	0.048393269	0.14388144	-0.044048641	0.74138666	0.15924081	-0.17037691	0.72474182	0.20647139	-0.28903101	0.69121454	-0.020973574	-0.15219707	0.71557562	-0.20413954	-0.030665009	0.73820679	-0.15805762	-0.023120001	1.1260045	-0.0065541401	-0.10384928	1.1842524	0.1386284	-0.11907307	1.1861475	-0.15530942	0.008327836	1.0333184	-0.024770523	-0.020705568	1.0788378	-0.13029077	0.30520782	0.48942188	0.078158455	0.28610522	0.50929117	0.2110956	0.21353217	0.64191223	0.12650352	0.25407109	0.10442178	0.10859491	0.19650708	0.091959717	0.19645021	0.25050854	0.31153842	0.22017691	0.15551012	0.049104786	0.14968576
2208	8.5	0.37765305	0.048437515	0.14379753	-0.043916187	0.74132703	0.15922514	-0.17027943	0.72490625	0.20646535	-0.28898526	0.69136646	-0.020965225	-0.15218932	0.71571222	-0.20415627	-0.030594898	0.73813123	-0.15807964	-0.020968414	1.1254705	-0.0067112565	-0.1014053	1.1841755	0.13843333	-0.1165909	1.1860205	-0.15548485	0.0099690742	1.0325885	-0.02488653	-0.018788431	1.0781942	-0.13040526	0.30500836	0.48944876	0.077988457	0.28598648	0.50933981	0.21093376	0.21345903	0.64194098	0.12637371	0.25400272	0.1044285	0.10856242	0.19647	0.091977867	0.19643504	0.25041631	0.31158228	0.2200569	0.1554799	0.049089069	0.14968343
2209	8.51	0.37761447	0.048476246	0.14372525	-0.043759773	0.74125464	0.15920323	-0.17015854	0.7250769	0.20644078	-0.28891522	0.69154285	-0.020960766	-0.15215996	0.71586584	-0.20417482	-0.030546341	0.7380282	-0.15810472	-0.018688526	1.1249076	-0.0068685265	-0.098816422	1.1840878	0.13823473	-0.11395959	1.1858849	-0.15565897	0.011722565	1.0318291	-0.025002741	-0.016748211	1.0775262	-0.13051932	0.30481271	0.48947977	0.077831947	0.28586749	0.50938998	0.21078778	0.21339087	0.64197131	0.12625134	0.25393727	0.10443578	0.10853522	0.19643439	0.091995461	0.19642236	0.25032452	0.31162604	0.21994948	0.15545242	0.04907616	0.14968132
2210	8.52	0.37758038	0.04851236	0.14366443	-0.043579437	0.74116803	0.15917494	-0.17001501	0.72525415	0.2063938	-0.28882236	0.69174451	-0.020960768	-0.1521068	0.71603766	-0.20419502	-0.030503918	0.73790094	-0.15813606	-0.016276054	1.1243136	-0.007026207	-0.096077385	1.1839861	0.13803337	-0.11117567	1.1857384	-0.15583044	0.01359214	1.0310385	-0.025118944	-0.014577425	1.0768405	-0.13063397	0.30462317	0.4895141	0.077691231	0.28574713	0.50944012	0.21065894	0.21332668	0.64200262	0.12613792	0.25387424	0.10444317	0.10851246	0.19639886	0.092011292	0.19641103	0.25023163	0.31166827	0.21985544	0.15542697	0.049064018	0.1496787
2211	8.53	0.37754919	0.048548759	0.14361456	-0.043372833	0.74106824	0.15914044	-0.16984991	0.72543958	0.2063257	-0.28870746	0.69197198	-0.020965624	-0.15202716	0.71622723	-0.20421605	-0.030442389	0.73775684	-0.15817714	-0.013725922	1.1236849	-0.0071843839	-0.093182434	1.1838663	0.13782974	-0.10823535	1.1855785	-0.15599855	0.015581216	1.0302122	-0.02523498	-0.012268706	1.076141	-0.13074997	0.30444214	0.48955038	0.077569176	0.28562454	0.50948865	0.21054822	0.21326559	0.642034	0.12603519	0.25381332	0.10445058	0.10849304	0.19636203	0.092024193	0.19639998	0.25013577	0.31170743	0.21977463	0.15540266	0.04905051	0.14967473
2212	8.54	0.37751926	0.048587772	0.14357491	-0.043134304	0.74095959	0.15909987	-0.16966313	0.72563519	0.20624208	-0.28856976	0.69222644	-0.02097567	-0.15191847	0.71643286	-0.20423709	-0.030338812	0.73760382	-0.15822968	-0.011031862	1.1230164	-0.0073426666	-0.090125587	1.183724	0.13762422	-0.10513407	1.185401	-0.15616289	0.017692583	1.0293453	-0.025350691	-0.0098161907	1.0754266	-0.13086732	0.3042713	0.48958676	0.07746862	0.2854989	0.50953369	0.2104567	0.21320746	0.64206372	0.12594495	0.25375438	0.10445802	0.10847607	0.19632245	0.092033142	0.19638824	0.2500352	0.31174228	0.21970663	0.15537845	0.04903381	0.14966866
